<?xml version="1.0" ?>
<!-- Uploaded to: SVG Repo, www.svgrepo.com, Generator: SVG Repo Mixer Tools -->
<svg width="800px" height="800px" viewBox="0 0 512 512" id="Layer_1" version="1.1" xml:space="preserve" xmlns="http://www.w3.org/2000/svg" xmlns:xlink="http://www.w3.org/1999/xlink">
<style type="text/css">
	.st0{fill:#232020;}
</style>
<g>
<path class="st0" d="M396,49.3H116c-16.2,0-29.4,13.2-29.4,29.4v354.5c0,16.2,13.2,29.4,29.4,29.4H396c16.2,0,29.4-13.2,29.4-29.4   V78.7C425.5,62.5,412.3,49.3,396,49.3z M411.5,433.3c0,8.5-6.9,15.4-15.4,15.4H116c-8.5,0-15.4-6.9-15.4-15.4V78.7   c0-8.5,6.9-15.4,15.4-15.4H396c8.5,0,15.4,6.9,15.4,15.4V433.3z"/>
<path class="st0" d="M383.2,84.2H128.8c-7.6,0-13.8,6.2-13.8,13.8v291.5c0,7.6,6.2,13.8,13.8,13.8h254.5c7.6,0,13.8-6.2,13.8-13.8   V98C397.1,90.4,390.9,84.2,383.2,84.2z M390.1,389.6c0,3.8-3.1,6.8-6.8,6.8H128.8c-3.8,0-6.8-3.1-6.8-6.8V98c0-3.8,3.1-6.8,6.8-6.8   h254.5c3.8,0,6.8,3.1,6.8,6.8V389.6z"/>
<path class="st0" d="M256,410.7c-8.5,0-15.3,6.9-15.3,15.3s6.9,15.3,15.3,15.3s15.3-6.9,15.3-15.3S264.5,410.7,256,410.7z    M256,434.3c-4.6,0-8.3-3.7-8.3-8.3s3.7-8.3,8.3-8.3s8.3,3.7,8.3,8.3S260.6,434.3,256,434.3z"/>
<circle class="st0" cx="256" cy="73.5" r="5.9"/>
<path class="st0" d="M271.5,195.2h64.2c1.9,0,3.5-1.6,3.5-3.5s-1.6-3.5-3.5-3.5h-64.2c-1.9,0-3.5,1.6-3.5,3.5   S269.6,195.2,271.5,195.2z"/>
<path class="st0" d="M271.5,231h64.2c1.9,0,3.5-1.6,3.5-3.5s-1.6-3.5-3.5-3.5h-64.2c-1.9,0-3.5,1.6-3.5,3.5S269.6,231,271.5,231z"/>
<path class="st0" d="M271.5,266.8h41.3c1.9,0,3.5-1.6,3.5-3.5s-1.6-3.5-3.5-3.5h-41.3c-1.9,0-3.5,1.6-3.5,3.5   S269.6,266.8,271.5,266.8z"/>
<path class="st0" d="M335.7,259.8h-11.5c-1.9,0-3.5,1.6-3.5,3.5s1.6,3.5,3.5,3.5h11.5c1.9,0,3.5-1.6,3.5-3.5   S337.6,259.8,335.7,259.8z"/>
<path class="st0" d="M271.5,212.4h18.9c1.9,0,3.5-1.6,3.5-3.5s-1.6-3.5-3.5-3.5h-18.9c-1.9,0-3.5,1.6-3.5,3.5   S269.6,212.4,271.5,212.4z"/>
<path class="st0" d="M335.7,205.4h-27c-1.9,0-3.5,1.6-3.5,3.5s1.6,3.5,3.5,3.5h27c1.9,0,3.5-1.6,3.5-3.5S337.6,205.4,335.7,205.4z"/>
<path class="st0" d="M271.5,248.1h64.2c1.9,0,3.5-1.6,3.5-3.5s-1.6-3.5-3.5-3.5h-64.2c-1.9,0-3.5,1.6-3.5,3.5   S269.6,248.1,271.5,248.1z"/>
<path class="st0" d="M271.5,283.9h64.2c1.9,0,3.5-1.6,3.5-3.5s-1.6-3.5-3.5-3.5h-64.2c-1.9,0-3.5,1.6-3.5,3.5   S269.6,283.9,271.5,283.9z"/>
<path class="st0" d="M354.7,170.6h-85.4c-4.8,0-9.3,2-12.5,5.6c-0.3,0.3-0.6,0.7-0.8,1c-0.3-0.3-0.5-0.7-0.8-1   c-3.2-3.6-7.7-5.6-12.5-5.6h-85.4v4.4h-15.5V317h110.7h7h110.7V175h-15.5V170.6z M262,180.8c1.8-2.1,4.5-3.2,7.3-3.2h78.4v117   h-78.4h-9.8V187.3C259.5,184.9,260.4,182.6,262,180.8z M250,180.8c1.6,1.8,2.5,4.1,2.5,6.5v107.2h-9.8h-78.4v-117h78.4   C245.5,177.6,248.1,178.7,250,180.8z M148.8,310V182h8.5v119.6h85.4c5,0,9.1,3.7,9.7,8.5H148.8z M363.2,182V310H259.6   c0.6-4.8,4.7-8.5,9.7-8.5h85.4V182H363.2z"/>
<path class="st0" d="M176.3,195.2h64.2c1.9,0,3.5-1.6,3.5-3.5s-1.6-3.5-3.5-3.5h-64.2c-1.9,0-3.5,1.6-3.5,3.5   S174.4,195.2,176.3,195.2z"/>
<path class="st0" d="M176.3,231h64.2c1.9,0,3.5-1.6,3.5-3.5s-1.6-3.5-3.5-3.5h-64.2c-1.9,0-3.5,1.6-3.5,3.5S174.4,231,176.3,231z"/>
<path class="st0" d="M240.5,259.8h-41.3c-1.9,0-3.5,1.6-3.5,3.5s1.6,3.5,3.5,3.5h41.3c1.9,0,3.5-1.6,3.5-3.5   S242.4,259.8,240.5,259.8z"/>
<path class="st0" d="M176.3,266.8h11.5c1.9,0,3.5-1.6,3.5-3.5s-1.6-3.5-3.5-3.5h-11.5c-1.9,0-3.5,1.6-3.5,3.5   S174.4,266.8,176.3,266.8z"/>
<path class="st0" d="M240.5,205.4h-18.9c-1.9,0-3.5,1.6-3.5,3.5s1.6,3.5,3.5,3.5h18.9c1.9,0,3.5-1.6,3.5-3.5   S242.4,205.4,240.5,205.4z"/>
<path class="st0" d="M176.3,212.4h27c1.9,0,3.5-1.6,3.5-3.5s-1.6-3.5-3.5-3.5h-27c-1.9,0-3.5,1.6-3.5,3.5S174.4,212.4,176.3,212.4z   "/>
<path class="st0" d="M176.3,248.1h64.2c1.9,0,3.5-1.6,3.5-3.5s-1.6-3.5-3.5-3.5h-64.2c-1.9,0-3.5,1.6-3.5,3.5   S174.4,248.1,176.3,248.1z"/>
<path class="st0" d="M176.3,283.9h64.2c1.9,0,3.5-1.6,3.5-3.5s-1.6-3.5-3.5-3.5h-64.2c-1.9,0-3.5,1.6-3.5,3.5   S174.4,283.9,176.3,283.9z"/>
</g>
</svg>