<?xml version="1.0" standalone="no"?>
<!DOCTYPE svg PUBLIC "-//W3C//DTD SVG 20010904//EN"
 "http://www.w3.org/TR/2001/REC-SVG-20010904/DTD/svg10.dtd">
<svg version="1.0" xmlns="http://www.w3.org/2000/svg"
 width="1487.000000pt" height="1452.000000pt" viewBox="0 0 1487.000000 1452.000000"
 preserveAspectRatio="xMidYMid meet">

<g transform="translate(0.000000,1452.000000) scale(0.100000,-0.100000)"
fill="#000000" stroke="none">
<path d="M6952 13969 c-12 -5 -54 -10 -94 -13 -95 -7 -231 -21 -394 -40 -126
-16 -380 -71 -454 -100 -19 -8 -55 -19 -80 -26 -25 -6 -64 -20 -88 -31 -23
-10 -47 -19 -52 -19 -6 0 -50 -24 -98 -54 -102 -64 -170 -147 -193 -236 -7
-29 -19 -55 -26 -57 -7 -3 -13 -13 -13 -22 0 -35 -87 -271 -100 -271 -5 0 -13
-23 -20 -50 -7 -28 -16 -52 -21 -55 -4 -3 -6 -12 -3 -19 3 -7 -2 -19 -11 -26
-8 -7 -15 -18 -15 -25 0 -13 -35 -107 -51 -138 -9 -17 -33 -83 -59 -162 -7
-22 -36 -89 -65 -150 -29 -60 -58 -131 -65 -157 -13 -48 -23 -59 -33 -34 -3 7
-25 16 -49 20 -23 4 -56 9 -71 11 -30 5 -96 -18 -108 -37 -4 -6 -10 3 -13 19
-5 20 -36 58 -95 114 -126 120 -171 149 -227 149 -29 0 -56 7 -72 19 -19 13
-52 20 -112 24 -47 4 -119 11 -160 16 -41 5 -159 10 -262 10 l-187 1 -17 -37
c-23 -49 -74 -126 -91 -136 -7 -4 -13 -21 -13 -36 0 -23 -23 -104 -46 -161 -4
-8 -7 -53 -8 -100 -1 -105 28 -238 67 -298 45 -70 47 -67 -55 -81 -51 -7 -118
-14 -148 -16 -30 -1 -100 -8 -155 -15 -65 -8 -302 -13 -685 -14 -322 -1 -595
-6 -607 -10 -12 -5 -25 -17 -29 -28 -12 -39 44 -118 83 -118 13 0 43 -9 65
-20 23 -11 49 -20 57 -20 32 -1 294 -69 304 -79 6 -6 24 -11 39 -11 16 0 54
-9 85 -20 32 -11 71 -20 88 -20 16 0 57 -12 90 -25 34 -14 80 -25 107 -25 26
0 49 -4 52 -9 8 -13 278 -52 561 -81 61 -7 151 -20 200 -30 50 -10 124 -21
165 -25 41 -3 89 -10 105 -15 70 -22 354 -37 1024 -55 l234 -6 51 -47 c28 -26
67 -63 86 -82 108 -107 240 -225 282 -251 6 -4 7 -12 4 -18 -4 -6 -2 -11 4
-11 6 0 30 -20 52 -45 23 -25 46 -45 52 -45 6 0 35 -23 64 -50 29 -28 56 -50
60 -50 4 0 21 -12 37 -28 17 -15 50 -43 75 -63 25 -20 59 -49 75 -63 17 -15
42 -33 56 -41 15 -8 29 -21 32 -30 4 -8 12 -15 18 -15 13 0 115 -75 139 -102
16 -19 45 -40 152 -113 37 -25 71 -45 75 -45 4 0 32 -18 61 -40 29 -22 55 -40
58 -40 4 0 24 -16 45 -35 l39 -35 -1290 0 c-709 0 -1290 2 -1290 4 0 3 11 17
24 31 54 58 74 162 75 385 1 217 -25 305 -118 393 -28 26 -51 52 -51 57 0 5
-14 24 -30 42 -17 18 -30 29 -30 25 0 -4 -10 1 -22 13 -12 11 -42 29 -67 41
-25 11 -55 25 -65 31 -38 20 -132 46 -194 53 -35 4 -76 13 -90 21 -42 22 -426
20 -478 -2 -22 -9 -70 -23 -109 -31 -38 -8 -105 -27 -147 -44 -43 -16 -88 -29
-101 -29 -13 0 -43 -9 -68 -21 -24 -11 -69 -32 -99 -46 -104 -47 -165 -77
-193 -96 l-29 -20 -41 41 c-47 44 -107 84 -182 120 -27 13 -61 29 -75 37 -14
7 -65 21 -114 30 -148 29 -548 6 -601 -34 -5 -5 -32 -14 -60 -20 -27 -7 -66
-21 -85 -31 -19 -10 -64 -30 -100 -45 -99 -42 -135 -58 -140 -66 -3 -3 -25
-17 -50 -29 -25 -13 -52 -30 -60 -39 -8 -9 -23 -20 -32 -26 -89 -52 -133 -94
-196 -183 -20 -29 -55 -76 -77 -105 -23 -29 -47 -68 -54 -87 -8 -19 -18 -39
-23 -45 -4 -5 -8 -30 -8 -55 0 -25 -5 -51 -11 -57 -26 -26 -10 -537 20 -618
10 -27 24 -65 30 -82 24 -71 34 -99 45 -123 24 -54 109 -188 149 -234 23 -27
47 -61 55 -75 7 -14 32 -44 55 -66 23 -22 58 -58 77 -80 43 -48 130 -115 186
-143 41 -21 41 -21 43 -82 1 -34 6 -69 11 -78 11 -20 47 -145 63 -217 6 -27
14 -52 17 -55 4 -3 12 -27 20 -55 7 -27 28 -81 46 -120 19 -38 41 -96 49 -127
8 -31 23 -71 35 -90 11 -18 20 -40 20 -49 0 -9 10 -27 23 -40 12 -13 28 -37
35 -52 6 -15 19 -30 27 -33 8 -4 15 -12 15 -19 0 -7 6 -16 13 -19 9 -5 9 -7 0
-12 -7 -3 -13 -10 -13 -15 0 -13 -81 -133 -92 -137 -4 -2 -8 -10 -8 -18 0 -8
-11 -26 -24 -41 -25 -27 -86 -141 -86 -161 0 -14 -48 -170 -60 -197 -18 -36
-49 -145 -61 -208 -6 -34 -15 -71 -20 -82 -33 -81 -51 -200 -56 -375 -7 -232
-8 -198 6 -380 10 -145 17 -202 40 -325 6 -27 10 -77 10 -110 1 -67 27 -311
42 -395 6 -30 17 -68 25 -83 8 -16 14 -35 14 -42 0 -20 57 -190 76 -227 9 -18
37 -64 61 -102 24 -37 42 -71 39 -74 -4 -3 -6 -2 -6 3 0 12 -50 -84 -66 -129
-25 -65 -36 -137 -30 -181 5 -31 19 -54 62 -99 63 -66 62 -48 13 -226 -19 -72
-23 -110 -23 -245 0 -88 3 -188 6 -223 3 -34 16 -172 28 -305 12 -133 25 -249
29 -257 5 -8 74 -31 177 -57 193 -50 219 -50 409 -7 61 14 133 29 160 34 198
35 435 149 435 209 0 9 -36 194 -81 411 -62 301 -86 403 -104 430 -13 19 -28
53 -35 75 -7 22 -17 45 -21 51 -5 6 -21 33 -35 60 -14 27 -39 66 -55 86 -16
20 -29 41 -29 47 0 5 -3 11 -7 13 -5 2 -25 28 -47 60 -31 46 -37 61 -31 87 4
17 11 31 16 31 5 0 9 25 9 56 0 87 -64 188 -144 230 -38 20 -145 38 -158 26
-7 -5 -31 -13 -54 -16 -40 -7 -40 -7 -68 41 -15 26 -36 62 -46 78 -26 39 -25
38 -54 128 -14 43 -28 99 -32 125 -3 26 -12 67 -19 92 -25 86 -65 327 -66 390
0 14 1 45 2 70 1 25 -7 81 -16 125 -39 179 -46 376 -21 585 20 170 49 305 67
320 3 3 16 46 28 95 13 50 41 128 63 175 22 47 47 101 56 120 9 19 39 68 67
109 27 41 55 82 61 92 9 16 14 16 35 5 13 -7 33 -17 44 -23 11 -5 48 -24 81
-42 34 -17 68 -31 76 -31 9 0 27 -9 41 -20 14 -11 32 -20 41 -20 9 0 24 -4 34
-9 81 -43 115 -51 259 -59 82 -5 165 -5 186 0 21 5 42 6 47 3 5 -3 29 -1 52 5
99 26 187 52 253 74 175 60 203 71 258 98 31 15 66 28 77 28 11 0 20 5 20 10
0 6 11 10 24 10 14 0 28 5 31 10 3 6 15 10 26 10 10 0 19 5 19 10 0 6 6 10 14
10 8 0 17 8 19 18 3 9 5 -724 6 -1629 l1 -1645 31 -130 c16 -71 36 -160 43
-199 57 -295 176 -658 272 -831 19 -33 34 -66 34 -72 0 -6 27 -68 60 -136 33
-69 60 -130 60 -136 0 -10 32 -86 51 -123 64 -119 124 -225 156 -272 7 -11 30
-45 50 -75 39 -59 201 -268 236 -306 12 -12 56 -59 97 -104 118 -129 206 -215
268 -262 31 -23 82 -68 112 -98 109 -108 252 -223 352 -283 437 -264 488 -291
868 -457 161 -70 511 -185 541 -177 10 3 46 -2 81 -9 55 -13 146 -23 323 -38
28 -2 93 -9 145 -16 151 -18 661 -4 885 25 166 22 193 28 345 83 155 56 301
115 415 167 47 22 110 47 200 83 50 19 225 100 245 113 8 5 26 15 40 21 14 7
27 15 30 19 3 3 12 8 20 12 91 41 353 198 388 234 7 7 17 13 21 13 4 0 21 11
36 24 16 14 48 35 71 47 24 12 62 41 84 65 23 24 45 44 50 44 5 0 38 27 72 60
35 33 66 60 70 60 9 0 448 527 448 538 0 5 13 28 30 50 16 23 30 45 30 49 0 8
49 82 68 101 6 7 12 17 12 22 0 5 11 20 24 33 13 13 31 38 40 55 9 17 29 50
45 74 15 24 43 70 61 103 18 33 37 66 42 72 13 17 60 113 93 193 15 36 42 97
61 137 19 39 34 77 34 83 0 7 16 47 35 89 19 43 42 108 50 147 9 38 22 89 30
114 32 111 87 381 120 595 60 382 60 401 58 2040 0 825 1 1483 4 1463 2 -24 9
-38 19 -38 8 0 14 -4 14 -10 0 -5 9 -10 19 -10 11 0 23 -4 26 -10 3 -5 17 -10
31 -10 13 0 24 -4 24 -10 0 -5 9 -10 20 -10 11 0 46 -13 77 -28 96 -47 314
-120 511 -172 23 -6 47 -8 52 -5 5 3 26 2 47 -3 21 -5 104 -5 186 0 144 8 178
16 259 59 10 5 25 9 34 9 9 0 27 9 41 20 14 11 32 20 41 20 8 0 42 14 76 31
33 18 70 37 81 42 11 6 31 16 44 23 21 11 26 11 35 -5 6 -10 34 -51 61 -92 28
-41 58 -90 67 -109 9 -19 34 -73 56 -120 22 -47 50 -125 63 -175 12 -49 25
-92 28 -95 18 -15 47 -150 67 -320 25 -209 18 -406 -21 -585 -9 -44 -17 -100
-16 -125 1 -25 2 -56 2 -70 -1 -63 -41 -304 -66 -390 -7 -25 -16 -66 -19 -92
-4 -26 -18 -82 -32 -125 -29 -90 -28 -89 -54 -128 -10 -16 -31 -52 -46 -78
-28 -48 -28 -48 -68 -41 -23 3 -47 11 -54 16 -13 12 -120 -6 -158 -26 -80 -42
-144 -143 -144 -230 0 -31 4 -56 9 -56 5 0 12 -14 16 -31 6 -26 0 -41 -31 -87
-22 -32 -42 -58 -46 -60 -5 -2 -8 -8 -8 -13 0 -6 -13 -27 -29 -47 -16 -20 -41
-59 -55 -86 -14 -27 -30 -54 -35 -60 -4 -6 -14 -29 -21 -51 -7 -22 -22 -56
-35 -75 -18 -27 -42 -129 -104 -430 -45 -217 -81 -402 -81 -411 0 -60 237
-174 435 -209 28 -5 100 -20 160 -34 190 -43 216 -43 409 7 103 26 172 49 177
57 4 8 17 124 29 257 12 133 25 271 28 305 3 35 6 135 6 223 0 135 -4 173 -23
245 -49 178 -50 160 13 226 63 67 75 106 58 189 -18 86 -82 232 -96 218 -17
-17 -1 14 38 74 24 37 51 83 60 101 19 37 76 207 76 227 0 7 6 26 14 42 8 15
19 53 25 83 15 84 41 328 42 395 0 33 4 83 10 110 23 123 30 180 40 325 14
182 13 148 6 380 -5 175 -23 294 -56 375 -5 11 -14 48 -20 82 -12 63 -43 172
-61 208 -12 27 -60 183 -60 197 0 20 -61 134 -86 161 -13 15 -24 33 -24 41 0
8 -4 16 -8 18 -11 4 -92 124 -92 137 0 5 -6 12 -12 15 -10 5 -10 7 0 12 6 3
12 12 12 19 0 7 7 15 15 19 8 3 21 18 27 33 7 15 23 39 35 52 13 13 23 31 23
40 0 9 9 31 20 49 12 19 27 59 35 90 8 31 30 89 49 127 18 39 39 93 46 120 8
28 16 52 20 55 3 3 11 28 17 55 16 72 52 197 63 217 5 9 10 44 11 78 2 61 2
61 43 82 56 28 143 95 186 143 19 22 54 58 77 80 23 22 48 52 55 66 8 14 32
48 55 75 40 46 125 180 149 234 11 24 21 52 45 123 6 17 20 55 30 82 14 37 19
79 20 155 0 58 5 123 10 145 11 46 -1 184 -25 285 -8 36 -22 100 -30 142 -12
63 -22 86 -58 132 -24 30 -60 79 -80 108 -63 89 -107 131 -196 183 -9 6 -24
17 -32 26 -8 9 -35 26 -60 39 -25 12 -47 26 -50 29 -5 8 -41 24 -140 66 -36
15 -81 35 -100 45 -19 10 -57 24 -85 31 -27 6 -55 15 -60 20 -6 4 -48 15 -95
24 -47 9 -101 19 -121 24 -56 13 -322 14 -371 1 -49 -12 -55 -15 -158 -64 -41
-20 -79 -36 -84 -36 -5 0 -35 -18 -67 -40 -32 -22 -63 -40 -67 -40 -5 0 -17
-9 -27 -20 -10 -11 -14 -20 -10 -20 5 0 4 -5 -2 -11 -9 -9 -19 -6 -40 8 -28
19 -89 49 -193 96 -30 14 -75 35 -99 46 -25 12 -55 21 -68 21 -13 0 -58 13
-101 29 -42 17 -108 36 -147 44 -38 8 -87 22 -109 31 -52 22 -436 24 -478 2
-14 -8 -55 -17 -90 -21 -62 -7 -156 -33 -194 -53 -10 -6 -40 -20 -65 -31 -25
-12 -55 -30 -67 -41 -12 -12 -22 -17 -22 -13 0 4 -13 -7 -30 -25 -16 -18 -30
-37 -30 -42 0 -5 -23 -31 -51 -57 -93 -88 -119 -176 -118 -393 1 -223 21 -327
75 -385 13 -14 24 -28 24 -31 0 -2 -552 -4 -1227 -4 l-1227 0 34 25 c19 14 38
25 43 25 6 0 23 13 38 30 16 16 41 37 56 47 71 45 199 149 231 186 13 15 28
27 34 27 5 0 17 8 26 19 15 16 68 63 229 199 108 93 296 272 369 353 17 19 45
45 62 58 17 13 49 40 70 60 115 109 112 107 224 115 57 4 132 9 168 12 36 2
139 9 230 14 156 8 349 27 505 49 39 6 125 13 193 17 67 4 122 11 122 15 0 5
45 9 99 9 55 0 102 4 105 8 3 5 38 14 78 21 40 7 105 19 143 28 39 9 115 18
169 20 54 2 107 8 117 13 26 14 167 40 217 40 24 0 53 5 65 12 27 14 98 27
195 35 39 3 72 9 72 14 0 5 18 9 40 9 22 0 40 5 40 10 0 6 18 10 39 10 22 0
41 4 43 8 2 4 42 17 89 29 83 20 147 44 219 83 19 10 55 24 80 31 25 7 55 22
68 33 13 11 29 21 35 21 48 1 107 71 107 127 l0 23 -212 -3 c-283 -5 -1006 -5
-1291 -1 l-228 3 6 26 c3 14 9 115 12 225 l5 200 -32 135 c-18 74 -36 141 -40
149 -6 12 -47 30 -135 59 -115 39 -480 63 -600 40 -85 -16 -218 -73 -315 -135
-53 -34 -170 -147 -170 -165 0 -4 -15 -8 -32 -8 -18 0 -58 -7 -88 -15 -68 -18
-66 -18 -67 3 -1 24 -93 286 -103 292 -4 3 -26 55 -50 115 -23 61 -48 125 -56
143 -8 18 -14 39 -14 47 0 16 -46 157 -60 184 -26 51 -80 170 -85 191 -12 41
-75 178 -130 280 -14 25 -25 56 -25 68 0 34 -27 75 -61 94 -17 10 -29 25 -29
38 0 13 -7 20 -20 20 -11 0 -28 4 -38 9 -83 42 -253 89 -442 121 -63 11 -135
25 -160 30 -25 6 -74 14 -110 19 -36 4 -81 13 -100 19 -60 19 -267 41 -450 48
-252 10 -814 12 -838 3z m-2285 -1831 c-3 -8 -6 -5 -6 6 -1 11 2 17 5 13 3 -3
4 -12 1 -19z m7450 -770 c-3 -8 -6 -5 -6 6 -1 11 2 17 5 13 3 -3 4 -12 1 -19z
m-6240 -288 c70 -6 151 -17 178 -25 32 -9 152 -18 335 -25 157 -6 371 -18 475
-26 148 -12 336 -15 850 -14 363 1 725 -1 805 -4 133 -5 399 6 478 20 25 5 32
3 32 -10 0 -9 -5 -16 -12 -16 -6 0 -23 -11 -37 -24 -48 -44 -126 -111 -172
-149 -26 -20 -69 -57 -95 -82 -27 -25 -52 -45 -56 -45 -5 0 -16 -8 -26 -17
-10 -10 -41 -37 -69 -61 -29 -24 -67 -57 -85 -74 -18 -17 -46 -37 -63 -45 -58
-27 -76 -40 -126 -93 -29 -28 -66 -59 -83 -67 -49 -23 -98 -54 -167 -108 -35
-28 -86 -66 -114 -85 -27 -18 -57 -41 -65 -49 -15 -16 -49 -42 -160 -121 -30
-22 -64 -47 -75 -55 -15 -12 -51 -15 -177 -15 -97 0 -158 4 -158 10 0 5 -28
23 -62 40 -77 37 -126 66 -153 89 -11 10 -33 25 -50 35 -16 10 -41 29 -55 41
-14 12 -41 31 -60 41 -19 10 -72 48 -117 84 -44 36 -120 92 -168 125 -49 33
-108 77 -132 98 -24 20 -48 37 -53 37 -5 0 -24 16 -41 35 -18 19 -38 35 -44
35 -7 0 -19 7 -26 16 -8 9 -32 28 -54 42 -49 31 -124 93 -179 148 -23 22 -59
52 -81 66 -22 14 -67 49 -100 77 -32 28 -64 51 -71 51 -6 0 -19 9 -30 21 -10
12 -31 27 -46 35 -16 8 -28 21 -28 29 0 8 -4 15 -8 15 -5 0 -17 7 -28 15 -18
14 -17 14 13 15 18 0 90 -5 160 -10z m5800 -481 c13 -5 44 -9 69 -9 25 0 57
-6 72 -14 15 -7 59 -19 97 -26 39 -8 90 -23 115 -36 25 -12 61 -25 80 -29 28
-6 76 -27 138 -61 1 -1 -20 -37 -47 -81 -69 -111 -90 -165 -144 -363 -22 -82
-23 -98 -21 -410 2 -303 14 -482 40 -567 3 -13 2 -23 -2 -22 -19 1 -220 115
-242 136 -7 7 -19 13 -26 13 -7 0 -38 18 -69 40 -30 22 -60 40 -66 40 -6 0
-11 5 -11 10 0 6 -7 10 -15 10 -9 0 -18 7 -21 15 -4 8 -13 15 -21 15 -19 0
-183 159 -183 177 0 7 -4 13 -10 13 -6 0 -10 82 -10 225 l0 225 -143 0 -143 0
-41 83 c-64 131 -87 223 -80 330 3 69 8 92 21 99 9 5 16 16 16 24 0 25 71 83
123 100 26 8 47 20 47 25 0 5 9 9 20 9 12 0 35 7 53 17 59 30 334 39 404 12z
m-8192 -16 c22 -8 52 -17 68 -20 15 -3 27 -9 27 -13 0 -5 21 -16 48 -24 51
-17 122 -75 122 -100 0 -8 7 -19 16 -24 13 -7 18 -30 21 -99 7 -107 -16 -199
-80 -330 l-41 -83 -143 0 -143 0 0 -233 0 -233 -89 -87 c-49 -48 -95 -87 -104
-87 -8 0 -17 -7 -21 -15 -3 -8 -12 -15 -21 -15 -8 0 -15 -4 -15 -10 0 -5 -5
-10 -11 -10 -6 0 -36 -18 -66 -40 -31 -22 -62 -40 -69 -40 -7 0 -19 -6 -26
-13 -22 -21 -223 -135 -242 -136 -4 -1 -5 9 -2 22 25 84 39 273 40 557 l1 305
-29 105 c-57 209 -78 261 -147 373 -27 44 -48 80 -47 81 62 34 110 55 138 61
19 4 55 17 80 29 25 13 77 28 115 36 39 7 79 17 90 23 11 6 49 15 85 19 36 5
90 12 120 17 75 12 276 2 325 -16z m-1671 -37 c54 -9 83 -19 93 -31 18 -26 17
-28 -19 -49 -47 -28 -263 -248 -341 -346 -203 -258 -279 -375 -324 -495 -23
-63 -95 -334 -106 -400 -5 -33 -15 -78 -21 -99 l-12 -39 -50 49 c-28 27 -61
65 -74 84 -14 19 -33 44 -43 55 -10 11 -36 57 -58 103 -22 45 -44 82 -48 82
-12 0 -40 68 -50 120 -5 25 -16 77 -25 117 -17 80 -16 211 4 283 12 44 83 189
98 200 4 3 33 37 65 75 31 39 65 79 76 90 24 26 119 95 131 95 5 0 33 14 61
31 58 34 145 69 199 80 60 12 361 9 444 -5z m11619 -21 c19 -8 37 -12 39 -9
12 12 154 -33 204 -64 83 -53 117 -84 201 -187 32 -38 61 -72 65 -75 4 -3 25
-39 47 -80 37 -73 68 -164 69 -205 0 -11 3 -41 7 -66 5 -30 2 -71 -10 -125 -9
-43 -21 -99 -26 -124 -10 -52 -38 -120 -50 -120 -4 0 -26 -37 -48 -82 -22 -46
-48 -92 -58 -103 -10 -11 -29 -36 -43 -55 -13 -19 -46 -57 -74 -84 l-50 -49
-12 39 c-6 21 -16 66 -21 99 -11 66 -83 337 -106 400 -30 80 -130 255 -146
255 -5 0 -34 35 -65 78 -142 195 -317 392 -420 472 -25 19 -45 37 -46 40 0 8
91 48 120 53 14 2 107 5 206 6 139 1 190 -2 217 -14z m-802 -322 c17 -16 40
-39 52 -53 12 -13 75 -81 140 -151 64 -70 117 -132 117 -138 0 -6 9 -16 20
-23 11 -7 20 -19 20 -26 0 -7 7 -15 15 -18 8 -3 25 -22 37 -42 12 -21 25 -39
28 -42 9 -8 52 -80 78 -130 23 -47 43 -81 96 -165 18 -27 42 -77 55 -110 12
-33 27 -67 31 -77 23 -42 59 -225 53 -263 -9 -56 -33 -72 -153 -95 -206 -40
-239 -43 -463 -37 -122 4 -233 10 -247 14 -23 8 -25 12 -25 76 0 37 -5 71 -11
75 -9 6 -34 167 -33 212 0 8 -6 65 -14 125 -8 61 -12 115 -9 120 4 6 7 48 8
95 2 78 12 175 30 275 4 22 6 49 6 60 -1 29 20 125 28 125 3 0 14 25 25 55 10
30 22 55 27 55 4 0 8 7 8 16 0 16 40 94 47 94 3 0 18 -12 34 -27z m-10423 -22
c12 -21 22 -46 22 -55 0 -9 4 -16 8 -16 5 0 17 -25 27 -55 11 -30 22 -55 25
-55 7 0 25 -71 36 -140 4 -25 9 -52 11 -60 11 -51 25 -188 27 -260 1 -47 4
-89 8 -95 3 -5 -1 -59 -9 -120 -8 -60 -14 -117 -14 -125 1 -45 -24 -206 -33
-212 -6 -4 -11 -38 -11 -75 0 -64 -2 -68 -25 -76 -14 -4 -125 -10 -247 -14
-224 -6 -257 -3 -463 37 -120 23 -144 39 -153 95 -6 38 30 221 53 263 4 10 19
44 31 77 13 33 37 83 55 110 53 84 73 118 96 165 26 50 69 122 78 130 3 3 16
21 28 42 12 20 29 39 37 42 8 3 15 11 15 18 0 7 9 19 20 26 11 7 20 19 20 27
0 13 170 208 257 295 14 14 35 35 46 47 12 13 25 23 28 23 3 0 15 -17 27 -39z
m6353 -796 c442 -41 690 -111 843 -239 233 -194 358 -573 411 -1241 4 -44 10
-98 15 -120 5 -22 12 -101 15 -175 4 -74 11 -216 16 -315 6 -99 13 -773 16
-1497 l5 -1318 -93 0 c-52 0 -130 -3 -175 -6 l-80 -7 4 169 c4 164 3 170 -20
203 -34 51 -74 70 -185 85 -109 15 -197 52 -303 128 -73 51 -170 163 -214 247
-101 193 -161 502 -186 954 -10 197 -3 489 25 982 18 308 23 435 30 650 2 88
16 248 29 355 39 308 49 437 44 591 -4 136 -6 148 -38 224 -51 120 -123 189
-306 294 -105 60 -109 59 147 36z m-236 -114 c3 -5 0 -13 -6 -17 -7 -4 -9 -3
-5 4 3 5 0 13 -6 15 -9 4 -10 6 -1 6 6 1 14 -3 18 -8z m270 -171 c3 -5 2 -10
-4 -10 -5 0 -13 5 -16 10 -3 6 -2 10 4 10 5 0 13 -4 16 -10z m2952 -86 c-3 -3
-12 -4 -19 -1 -8 3 -5 6 6 6 11 1 17 -2 13 -5z m-8280 -10 c-3 -3 -12 -4 -19
-1 -8 3 -5 6 6 6 11 1 17 -2 13 -5z m8257 -130 c9 -13 21 -24 27 -24 6 0 27
-13 45 -30 19 -16 63 -44 99 -61 36 -17 65 -35 65 -40 0 -5 7 -9 16 -9 8 0 34
-11 57 -24 38 -22 65 -31 160 -51 15 -3 27 -11 27 -19 0 -21 32 -43 71 -50 31
-5 38 -11 43 -38 7 -34 40 -89 88 -146 15 -18 28 -39 28 -47 0 -8 18 -32 39
-54 22 -22 43 -47 48 -55 8 -14 152 -172 239 -263 23 -24 46 -43 51 -43 4 0
17 -15 27 -34 10 -19 24 -37 31 -40 7 -2 38 -41 69 -85 32 -45 62 -81 67 -81
5 0 9 -5 9 -11 0 -17 -27 -39 -49 -39 -11 0 -22 -4 -25 -9 -3 -5 -18 -11 -33
-14 -16 -2 -66 -13 -113 -22 -105 -22 -308 -22 -430 0 -47 9 -110 20 -141 25
-53 8 -133 31 -174 50 -11 5 -49 21 -85 36 -36 14 -76 34 -90 43 -14 10 -41
24 -60 31 -19 8 -60 33 -91 56 -31 24 -62 44 -69 46 -37 8 -50 33 -50 90 0 31
-4 60 -10 63 -6 4 -10 167 -10 456 0 293 3 449 10 449 6 0 10 9 10 21 0 18 5
17 44 -16 25 -20 52 -47 60 -61z m-8144 -442 l0 -528 -23 -20 c-13 -10 -29
-20 -37 -22 -7 -2 -38 -22 -69 -46 -31 -23 -72 -48 -91 -56 -19 -7 -46 -21
-60 -31 -14 -9 -54 -29 -90 -43 -36 -15 -74 -31 -85 -36 -41 -19 -121 -42
-174 -50 -31 -5 -94 -16 -141 -25 -122 -22 -325 -22 -430 0 -47 9 -97 20 -113
22 -15 3 -30 9 -33 14 -3 5 -14 9 -25 9 -22 0 -49 22 -49 39 0 6 4 11 9 11 5
0 35 36 67 81 31 44 62 83 69 85 7 3 21 21 31 40 10 19 23 34 27 34 5 0 28 19
51 43 87 91 231 249 239 263 5 8 26 33 48 55 21 22 39 46 39 54 0 8 13 29 28
47 48 57 81 112 88 146 5 27 12 33 43 38 39 7 71 29 71 50 0 8 12 16 28 19 94
20 121 29 159 51 23 13 49 24 57 24 9 0 16 4 16 9 0 5 29 23 65 40 36 17 80
45 99 61 18 17 36 30 40 30 3 0 33 27 67 60 33 33 65 60 70 60 5 0 9 -216 9
-528z m6447 146 c-3 -8 -6 -5 -6 6 -1 11 2 17 5 13 3 -3 4 -12 1 -19z m3523
-113 c0 -2 -11 -34 -25 -70 -13 -36 -24 -69 -25 -73 0 -17 -54 -161 -76 -203
-13 -26 -24 -53 -24 -62 0 -8 -7 -20 -15 -27 -8 -7 -15 -20 -15 -29 0 -9 -8
-21 -18 -27 -15 -10 -22 -7 -41 12 -13 13 -26 24 -30 24 -19 0 -261 253 -261
272 0 5 -18 26 -41 46 -35 31 -89 107 -89 124 0 2 75 3 168 1 92 -2 203 0 247
5 88 10 245 15 245 7z m-11442 -20 c105 0 192 -2 192 -4 0 -16 -55 -92 -89
-123 -23 -20 -41 -41 -41 -46 0 -19 -242 -272 -261 -272 -4 0 -17 -11 -30 -24
-19 -19 -26 -22 -41 -12 -10 6 -18 18 -18 27 0 9 -7 22 -15 29 -8 7 -15 19
-15 27 0 9 -11 36 -24 62 -22 42 -81 199 -79 211 0 3 -10 33 -23 68 -13 34
-24 65 -24 69 0 3 62 2 138 -3 75 -5 224 -9 330 -9z m5412 -680 l0 -525 -1855
0 -1855 0 0 525 0 525 1855 0 1855 0 0 -525z m0 -1760 l0 -525 -1845 0 -1845
0 0 525 0 525 1845 0 1845 0 0 -525z m1414 -741 c3 -8 2 -12 -4 -9 -6 3 -10
10 -10 16 0 14 7 11 14 -7z m-2955 -521 c19 -60 35 -114 37 -120 5 -19 37 -16
164 17 l115 29 -97 -95 c-54 -52 -98 -97 -98 -100 0 -2 46 -49 102 -103 l103
-99 -139 24 c-77 13 -143 21 -148 18 -4 -3 -8 -14 -8 -26 0 -22 -49 -189 -59
-200 -4 -4 -24 45 -45 110 -22 64 -43 121 -47 126 -4 4 -22 3 -41 -3 -18 -6
-73 -19 -121 -30 -101 -22 -101 -30 0 85 35 39 63 77 63 83 0 7 -34 53 -76
102 -42 50 -75 92 -73 93 2 2 53 -6 112 -17 78 -15 113 -18 125 -11 9 6 32 59
51 117 20 59 38 107 41 107 3 0 21 -48 39 -107z m3401 -317 c-7 -7 -13 -7 -20
0 -6 6 -3 10 10 10 13 0 16 -4 10 -10z m-55 -26 c-3 -5 -12 -10 -18 -10 -7 0
-6 4 3 10 19 12 23 12 15 0z m870 -27 c-5 -10 -17 -49 -27 -88 -33 -117 -22
-440 48 -1509 26 -392 26 -402 10 -520 -19 -134 -47 -230 -77 -262 -42 -46
-163 -55 -375 -30 -97 11 -117 17 -158 45 -56 39 -108 115 -144 214 -26 71
-27 77 -26 317 0 135 5 304 12 375 7 72 29 297 48 500 41 419 42 397 -31 552
-43 91 -117 186 -155 198 -26 8 -29 34 -9 75 22 46 55 75 104 94 47 18 144 36
192 36 18 0 33 4 33 8 0 4 127 9 281 10 267 3 281 2 274 -15z m-982 -108 c-3
-9 -8 -14 -10 -11 -3 3 -2 9 2 15 9 16 15 13 8 -4z m-4182 -288 c43 -146 34
-141 205 -98 l119 30 -102 -100 c-57 -55 -103 -103 -103 -105 0 -3 38 -48 85
-101 46 -53 83 -98 82 -99 -1 -2 -54 8 -117 22 -63 13 -119 23 -124 21 -4 -1
-24 -54 -43 -117 -19 -63 -38 -118 -42 -122 -4 -4 -24 44 -44 106 -21 63 -43
118 -50 124 -8 6 -54 0 -136 -19 -68 -16 -126 -28 -127 -26 -2 2 35 47 81 100
47 53 85 102 85 109 0 7 -37 50 -82 96 l-83 84 55 -6 c158 -18 190 -19 204 -7
9 7 32 64 53 127 20 62 39 111 42 108 3 -3 22 -60 42 -127z m4237 68 c-3 -3
-9 2 -12 12 -6 14 -5 15 5 6 7 -7 10 -15 7 -18z m-2344 -126 l44 -124 44 1
c23 1 84 11 133 22 l90 21 -92 -90 c-51 -50 -93 -92 -93 -95 0 -3 32 -43 72
-87 40 -45 81 -92 91 -103 l18 -22 -132 24 c-73 12 -137 21 -141 18 -4 -3 -8
-12 -8 -20 0 -8 -14 -65 -32 -125 l-31 -111 -37 127 c-21 69 -42 131 -47 136
-6 6 -54 1 -138 -16 -70 -14 -129 -24 -131 -22 -2 1 35 44 81 94 47 50 85 94
85 98 0 3 -34 47 -75 97 -41 51 -73 93 -71 95 3 4 183 -33 209 -42 30 -12 44
12 78 135 19 65 35 117 37 116 1 -2 22 -59 46 -127z m2424 76 c-3 -3 -9 2 -12
12 -6 14 -5 15 5 6 7 -7 10 -15 7 -18z m1697 -1005 c-4 -6 -1 -19 6 -28 12
-16 12 -16 -5 0 -16 14 -15 38 0 38 3 0 2 -5 -1 -10z m5 -54 c0 -2 -8 -10 -17
-17 -16 -13 -17 -12 -4 4 13 16 21 21 21 13z m-5672 -153 c17 -54 32 -107 34
-118 5 -30 35 -30 160 0 61 14 113 24 115 22 2 -2 -39 -45 -92 -95 -52 -50
-95 -95 -95 -99 1 -4 41 -51 90 -103 49 -52 88 -95 87 -97 -5 -4 -213 48 -234
58 -25 13 -43 5 -43 -19 -1 -20 -63 -229 -71 -236 -3 -3 -18 45 -34 106 -31
120 -52 154 -88 144 -44 -13 -210 -46 -213 -43 -2 2 32 39 76 82 44 44 80 86
79 95 0 8 -38 58 -84 110 -46 52 -82 96 -80 98 1 2 55 -7 119 -20 86 -16 121
-19 134 -12 9 6 35 59 56 117 22 59 42 107 46 107 4 0 21 -44 38 -97z m1217
-10 c15 -49 31 -104 34 -123 8 -46 23 -48 167 -15 64 14 118 24 120 22 2 -2
-39 -45 -91 -96 -52 -50 -95 -95 -95 -99 0 -4 46 -52 101 -108 l102 -102 -143
34 c-78 19 -146 31 -151 28 -5 -3 -9 -13 -9 -22 0 -9 -14 -70 -32 -135 l-33
-117 -45 137 c-39 119 -48 138 -65 136 -11 -1 -72 -15 -135 -32 -63 -16 -115
-29 -117 -28 -1 2 38 48 87 104 50 56 90 108 90 115 0 7 -42 55 -92 106 -72
73 -87 93 -68 89 14 -3 71 -15 127 -28 55 -12 108 -19 116 -16 9 3 32 56 53
121 21 64 41 116 44 116 3 0 19 -39 35 -87z m4035 -499 c0 -8 -19 -13 -24 -6
-3 5 1 9 9 9 8 0 15 -2 15 -3z m-140 -237 c0 -2 -15 -16 -32 -33 l-33 -29 29
33 c28 30 36 37 36 29z m-272 -142 c-3 -3 -9 2 -12 12 -6 14 -5 15 5 6 7 -7
10 -15 7 -18z m62 -99 c0 -2 -8 -10 -17 -17 -16 -13 -17 -12 -4 4 13 16 21 21
21 13z m-1585 -905 c3 -5 2 -12 -3 -15 -5 -3 -9 1 -9 9 0 17 3 19 12 6z m-179
-86 c-11 -8 -25 -15 -30 -15 -6 1 0 7 14 15 32 19 40 18 16 0z"/>
<path d="M8694 9299 c-3 -5 -17 -9 -32 -9 -15 0 -34 -4 -41 -9 -18 -11 -12
-13 139 -37 144 -22 280 -64 390 -119 73 -36 110 -63 170 -123 154 -155 236
-349 294 -696 22 -129 57 -436 51 -446 -2 -4 2 -43 10 -86 30 -170 54 -917 55
-1676 l0 -498 26 0 27 0 -6 718 c-4 394 -11 821 -17 947 -6 127 -11 264 -11
305 -1 41 -7 118 -15 170 -8 52 -21 167 -29 255 -54 557 -149 840 -350 1042
-68 67 -99 90 -186 133 -57 29 -140 63 -184 77 -102 30 -284 63 -291 52z"/>
<path d="M9696 4219 c-19 -23 -26 -42 -26 -74 0 -64 37 -105 95 -105 58 0 95
41 95 105 0 64 -37 105 -95 105 -36 0 -48 -5 -69 -31z m102 -31 c7 -7 12 -26
12 -43 0 -36 -15 -55 -45 -55 -30 0 -45 19 -45 55 0 36 15 55 45 55 12 0 26
-5 33 -12z"/>
<path d="M9864 3793 c9 -89 54 -771 67 -1023 6 -124 9 -299 6 -390 -8 -235
-35 -323 -105 -345 -24 -7 -32 -15 -32 -32 0 -31 36 -31 80 0 125 84 136 307
65 1372 -33 494 -30 475 -62 475 -24 0 -25 -1 -19 -57z"/>
<path d="M13860 12840 c0 -5 5 -10 10 -10 6 0 10 5 10 10 0 6 -4 10 -10 10 -5
0 -10 -4 -10 -10z"/>
</g>
</svg>
